<?xml version="1.0" encoding="utf-8"?>
<!-- Uploaded to: SVG Repo, www.svgrepo.com, Generator: SVG Repo Mixer Tools -->
<svg fill="#000000" width="100%" height="100%" viewBox="0 0 32 32" version="1.1" xmlns="http://www.w3.org/2000/svg">
<title>archer</title>
<path d="M26.008 6.953l0.505 1.941-2.33 0.459c-1.224-3.545-3.74-6.472-7.201-7.242 2.399 2.041 4.078 4.579 5.093 7.33l-8.529 1.324c-0 0-0 0-0 0.001 0.393-0.655 0.59-1.54 0.494-2.489-0.187-1.847-1.409-3.236-2.73-3.103s-2.241 1.739-2.054 3.586c0.063 0.621 0.243 1.19 0.504 1.667-0-0-0-0-0-0-2.781 0.074-4.772 0.723-5.79 2.386 1.316 1.236 3.919 1.453 5.954 1.13l1.266 3.439-3.295 13.273h2.133l3.812-10.54 6.875 10.54h2.096l-7.166-13.7-0.295-4.417 7.251-1.437c0.97 3.638 0.853 7.535-0.24 11.082 2.771-3.229 3.26-8.109 2.003-12.273l3.971-0.783-0.112-0.57 0.001-0 0.112 0.57-1.676 0.33 0.501 1.924 3.458-2.912-4.61-1.517zM11.362 11.813c-0.033-0.009-0.067-0.018-0.1-0.028 0.033 0.011 0.066 0.020 0.1 0.028zM11.488 11.841c-0.032-0.006-0.064-0.013-0.096-0.021 0.032 0.008 0.064 0.015 0.096 0.021zM9.818 10.529c-0.005-0.009-0.010-0.017-0.015-0.026 0.005 0.009 0.010 0.017 0.015 0.026zM10.083 10.919c-0.005-0.006-0.010-0.013-0.015-0.019 0.005 0.006 0.010 0.013 0.015 0.019zM9.979 10.779c-0.006-0.009-0.013-0.018-0.019-0.027 0.006 0.009 0.013 0.018 0.019 0.027zM9.913 10.682c-0.002-0.003-0.004-0.006-0.006-0.009 0.002 0.003 0.004 0.006 0.006 0.009zM10.132 10.979c0.008 0.010 0.017 0.020 0.025 0.030-0.008-0.010-0.017-0.020-0.025-0.030zM10.24 11.102c0.009 0.010 0.019 0.021 0.029 0.031-0.010-0.010-0.019-0.021-0.029-0.031zM10.316 11.183c0.011 0.012 0.023 0.023 0.034 0.034-0.012-0.011-0.023-0.023-0.034-0.034zM11.16 11.749c0.028 0.011 0.057 0.021 0.085 0.030-0.029-0.009-0.057-0.019-0.085-0.030zM10.423 11.285c0.014 0.013 0.029 0.026 0.044 0.039-0.015-0.013-0.029-0.026-0.044-0.039zM10.512 11.363c0.015 0.013 0.031 0.025 0.046 0.037-0.015-0.012-0.031-0.025-0.046-0.037zM10.617 11.445c0.020 0.015 0.040 0.030 0.060 0.044-0.020-0.014-0.040-0.029-0.060-0.044zM10.719 11.518c0.020 0.013 0.039 0.026 0.059 0.038-0.020-0.012-0.039-0.025-0.059-0.038zM10.822 11.584c0.025 0.015 0.050 0.029 0.075 0.043-0.025-0.014-0.050-0.028-0.075-0.043zM10.935 11.647c0.024 0.013 0.048 0.025 0.072 0.036-0.024-0.012-0.048-0.024-0.072-0.036zM11.037 11.697c0.030 0.013 0.059 0.026 0.089 0.038-0.030-0.012-0.060-0.025-0.089-0.038zM11.739 11.87c0.036 0.001 0.072 0.001 0.108 0.001-0.036 0.001-0.072 0.001-0.108-0.001zM11.498 11.843c0.035 0.006 0.070 0.011 0.105 0.015-0.035-0.004-0.070-0.009-0.105-0.015zM11.631 11.861c0.035 0.004 0.069 0.006 0.104 0.008-0.035-0.001-0.070-0.004-0.104-0.008zM11.875 11.869c0.037-0.001 0.073-0.004 0.11-0.007 0.041-0.004 0.081-0.010 0.121-0.017-0.040 0.007-0.080 0.012-0.121 0.017-0.037 0.004-0.073 0.006-0.11 0.007zM12.968 11.444c-0.006 0.005-0.011 0.009-0.017 0.013 0.006-0.005 0.011-0.009 0.017-0.013zM12.872 11.518c-0.007 0.005-0.015 0.010-0.022 0.015 0.007-0.005 0.015-0.010 0.022-0.015zM12.772 11.585c-0.009 0.006-0.019 0.011-0.028 0.017 0.009-0.006 0.019-0.011 0.028-0.017zM12.668 11.647c-0.012 0.006-0.023 0.012-0.035 0.018 0.012-0.006 0.023-0.012 0.035-0.018zM12.562 11.701c-0.014 0.007-0.028 0.012-0.042 0.019 0.014-0.006 0.028-0.012 0.042-0.019zM12.452 11.748c-0.017 0.007-0.034 0.012-0.050 0.018 0.017-0.006 0.034-0.012 0.050-0.018zM12.34 11.788c-0.020 0.006-0.040 0.011-0.060 0.017 0.020-0.006 0.040-0.011 0.060-0.017zM12.224 11.821c-0.024 0.006-0.049 0.011-0.074 0.016 0.025-0.005 0.050-0.010 0.074-0.016zM13.143 11.286c0.003-0.003 0.006-0.006 0.008-0.008-0.003 0.003-0.006 0.006-0.008 0.008zM13.049 11.375c0.004-0.004 0.008-0.007 0.013-0.011-0.004 0.004-0.008 0.007-0.013 0.011zM13.475 10.877c-0 0-0 0.001-0.001 0.001s0-0.001 0.001-0.001zM13.399 10.986c-0 0.001-0.001 0.001-0.001 0.002 0-0.001 0.001-0.001 0.001-0.002zM13.32 11.089c-0.001 0.001-0.002 0.002-0.003 0.004 0.001-0.001 0.002-0.002 0.003-0.004zM13.237 11.186c-0.002 0.002-0.004 0.004-0.005 0.006 0.002-0.002 0.004-0.004 0.005-0.006z"></path>
</svg>